#!OML:ASF H:\GeneralSubjects\Female5\Project 1\Capture day 1\Session 1\Female5.ASF
:FULLY-SPECIFIED
:DEGREES
620
root 28.0934 15.363 4.82632 -174.548 0.546801 -182.309
lowerback 15.1181 -1.31305 -5.65601
upperback -13.3188 -1.26255 3.86061
thorax -24.2854 1.54239 8.13948
lowerneck -8.49651 1.29019 6.87
upperneck 41.7212 13.6689 -10.91
head 18.5318 8.21739 -3.02189
rclavicle 1.11319e-014 2.8625e-014
rhumerus -64.2119 15.7537 -79.9781
rradius 28.4831
rwrist -12.5718
rhand -24.4815 -20.6633
rfingers 7.12502
rthumb 2.01238 -50.6336
lclavicle 1.11319e-014 2.8625e-014
lhumerus -58.7448 -0.278569 81.1646
lradius 46.1674
lwrist -2.68814
lhand -27.4938 25.9386
lfingers 7.12502
lthumb -0.897057 55.9165
rfemur -23.5795 18.1356 17.2693
rtibia 5.96669
rfoot -14.8733 -25.7619
rtoes -3.11726
lfemur 9.77873 -15.435 -36.273
ltibia 15.7404
lfoot -25.4318 -6.5281
ltoes -43.742
621
root 28.1772 15.3642 4.548 -174.727 0.709451 -181.111
lowerback 14.9094 -1.33311 -4.63656
upperback -13.292 -0.892589 4.17486
thorax -24.1934 1.5673 7.7746
lowerneck -8.41744 1.31162 7.14163
upperneck 41.7327 13.8712 -11.1918
head 18.6186 8.34827 -3.16076
rclavicle 1.47101e-014 -3.02153e-014
rhumerus -63.9117 15.7726 -79.978
rradius 28.1977
rwrist -12.7064
rhand -24.5703 -20.8927
rfingers 7.12502
rthumb 1.92653 -50.8638
lclavicle 1.47101e-014 -3.02153e-014
lhumerus -59.6107 0.328938 80.7908
lradius 45.545
lwrist -2.79582
lhand -27.0335 26.1003
lfingers 7.12502
lthumb -0.452412 56.0796
rfemur -23.566 15.236 20.2568
rtibia 8.5337
rfoot -11.1562 -22.7739
rtoes -5.02943
lfemur 10.3443 -15.5225 -35.1637
ltibia 17.5071
lfoot -25.9981 -6.02097
ltoes -44.9742
622
root 28.2612 15.3777 4.28599 -174.815 1.00659 -180.023
lowerback 14.7213 -1.26092 -3.84119
upperback -13.2239 -0.445959 4.56046
thorax -24.0661 1.67244 7.60029
lowerneck -8.49296 1.34498 7.10809
upperneck 41.7568 14.098 -11.362
head 18.7213 8.4362 -3.1808
rclavicle -3.57812e-014 7.15625e-014
rhumerus -63.3903 16.0173 -79.8911
rradius 28.0206
rwrist -12.9455
rhand -24.4339 -20.9663
rfingers 7.12502
rthumb 2.05828 -50.9362
lclavicle -3.57812e-014 7.15625e-014
lhumerus -60.3569 1.22887 80.5032
lradius 44.7283
lwrist -2.42616
lhand -26.0647 26.7937
lfingers 7.12502
lthumb 0.483299 56.7729
rfemur -23.3265 13.4719 22.7945
rtibia 10.4248
rfoot -8.77258 -20.4255
rtoes -8.42015
lfemur 9.61273 -13.8439 -33.0814
ltibia 20.5505
lfoot -24.8978 -5.91171
ltoes -46.4538
623
root 28.3455 15.3991 4.0334 -174.965 1.38113 -179.159
lowerback 14.6174 -1.12027 -3.34251
upperback -13.0913 -0.0153208 4.92223
thorax -23.8995 1.80995 7.57989
lowerneck -8.7141 1.38456 6.78107
upperneck 41.9295 14.2841 -11.2023
head 18.878 8.48275 -2.993
rclavicle 4.37326e-014 -1.08139e-013
rhumerus -62.7663 16.3921 -79.8877
rradius 27.9825
rwrist -13.2392
rhand -24.4309 -21.11
rfingers 7.12502
rthumb 2.06122 -51.0798
lclavicle 4.37326e-014 -1.08139e-013
lhumerus -60.438 2.16162 80.3117
lradius 43.1345
lwrist -2.24798
lhand -23.2453 27.6718
lfingers 7.12502
lthumb 3.20621 57.6274
rfemur -22.4895 12.7724 24.809
rtibia 11.3442
rfoot -7.82351 -19.0074
rtoes -9.46462
lfemur 8.87844 -12.2809 -31.2844
ltibia 23.7955
lfoot -23.3915 -4.85615
ltoes -47.8467
624
root 28.43 15.4252 3.78621 -175.197 1.72422 -178.752
lowerback 14.6287 -0.953509 -3.4021
upperback -13.0014 0.248907 5.12173
thorax -23.8422 1.95518 7.76126
lowerneck -8.66741 1.37417 6.6749
upperneck 42.0637 14.3539 -11.0646
head 18.9348 8.53545 -2.8894
rclavicle 1.39149e-014 -2.06736e-014
rhumerus -62.3444 16.8618 -80.2256
rradius 28.1492
rwrist -13.6959
rhand -24.5831 -21.2946
rfingers 7.12502
rthumb 1.91422 -51.2657
lclavicle 1.39149e-014 -2.06736e-014
lhumerus -59.6327 3.19809 79.8482
lradius 40.4849
lwrist -2.99709
lhand -31.2613 26.1391
lfingers 7.12502
lthumb -4.53548 56.0706
rfemur -21.1987 12.4357 26.1142
rtibia 11.4655
rfoot -8.0089 -17.642
rtoes -6.12599
lfemur 7.25769 -10.2902 -29.7138
ltibia 28.2584
lfoot -20.8844 -3.48606
ltoes -47.821
625
root 28.5185 15.4556 3.54826 -175.452 1.90642 -178.48
lowerback 14.7745 -0.820236 -3.71026
upperback -12.9813 0.391598 5.26661
thorax -23.9609 2.09988 8.07589
lowerneck -8.36323 1.29444 6.94926
upperneck 42.0976 14.4011 -11.2668
head 18.9367 8.63597 -3.03001
rclavicle -3.97569e-015 -1.27222e-014
rhumerus -62.1347 17.4839 -80.8394
rradius 28.5032
rwrist -14.2228
rhand -24.5635 -21.3065
rfingers 7.12502
rthumb 1.93313 -51.2775
lclavicle -3.97569e-015 -1.27222e-014
lhumerus -60.3332 3.85962 79.4182
lradius 39.1638
lwrist -3.94775
lhand -26.0006 28.529
lfingers 7.12502
lthumb 0.545194 58.508
rfemur -19.6519 12.2937 27.1762
rtibia 11.1424
rfoot -8.1348 -16.9937
rtoes -5.17346
lfemur 5.21674 -8.27418 -28.2142
ltibia 33.2418
lfoot -17.7729 -1.09486
ltoes -45.6178
626
root 28.6073 15.4898 3.31515 -175.772 1.93366 -177.976
lowerback 14.9904 -0.749006 -3.53506
upperback -12.8927 0.567209 5.42339
thorax -24.0324 2.16505 8.10266
lowerneck -8.27243 1.28684 6.84418
upperneck 42.168 14.4849 -11.1789
head 18.9503 8.69087 -2.94876
rclavicle 4.37326e-015 -1.43125e-014
rhumerus -61.9283 18.3087 -81.638
rradius 29.1482
rwrist -14.8256
rhand -24.8514 -21.1823
rfingers 7.12502
rthumb 1.65511 -51.1556
lclavicle 4.37326e-015 -1.43125e-014
lhumerus -60.7125 4.03622 79.3403
lradius 37.6593
lwrist -4.42727
lhand -26.4288 27.9249
lfingers 7.12502
lthumb 0.131642 57.9046
rfemur -17.7517 12.5 28.4628
rtibia 10.3999
rfoot -8.46664 -17.0618
rtoes -6.29276
lfemur 2.93774 -6.25513 -26.5427
ltibia 38.3637
lfoot -14.7467 2.43226
ltoes -42.3684
627
root 28.6957 15.5221 3.08912 -176.082 1.82999 -177.378
lowerback 15.1986 -0.729565 -3.03568
upperback -12.752 0.741592 5.55411
thorax -24.0129 2.15694 7.89965
lowerneck -8.37435 1.37596 6.33576
upperneck 42.3 14.5898 -10.6705
head 18.9584 8.70113 -2.58422
rclavicle 7.55382e-015 -7.95139e-015
rhumerus -61.6595 19.1736 -82.4096
rradius 30.0931
rwrist -15.3511
rhand -25.2615 -20.8675
rfingers 7.12502
rthumb 1.25898 -50.8435
lclavicle 7.55382e-015 -7.95139e-015
lhumerus -60.8784 4.08552 79.3276
lradius 36.227
lwrist -4.48948
lhand -26.5535 27.4063
lfingers 7.12502
lthumb 0.0111137 57.386
rfemur -15.7372 12.8215 29.8204
rtibia 9.32536
rfoot -9.06926 -17.2454
rtoes -6.79775
lfemur 0.527448 -4.75261 -24.9635
ltibia 43.4724
lfoot -12.4769 6.10567
ltoes -40.4495
628
root 28.7948 15.5521 2.87389 -176.274 1.57993 -176.846
lowerback 15.3241 -0.72845 -2.84407
upperback -12.6335 0.817954 5.7057
thorax -23.9539 2.16785 7.93879
lowerneck -8.42082 1.44632 6.12966
upperneck 42.3317 14.7276 -10.478
head 18.967 8.74853 -2.42108
rclavicle 3.18055e-014 -8.5875e-014
rhumerus -61.3338 19.9808 -83.0359
rradius 31.1802
rwrist -15.5972
rhand -25.3391 -20.4463
rfingers 7.12502
rthumb 1.18405 -50.4228
lclavicle 3.18055e-014 -8.5875e-014
lhumerus -61.0368 4.44606 78.9799
lradius 35.0551
lwrist -5.05174
lhand -26.9779 27.1101
lfingers 7.12502
lthumb -0.398712 57.0895
rfemur -13.9508 13.1903 31.0503
rtibia 8.2447
rfoot -9.69433 -17.5805
rtoes -6.37495
lfemur -2.22012 -3.42692 -23.4395
ltibia 48.444
lfoot -10.4389 8.99183
ltoes -36.8206
629
root 28.859 15.5825 2.66437 -176.499 0.981735 -176.458
lowerback 15.5226 -0.827854 -2.58003
upperback -12.5504 0.759833 5.79274
thorax -23.9639 2.10529 7.90787
lowerneck -8.2865 1.4479 6.45843
upperneck 42.2071 14.8679 -10.8218
head 18.9581 8.85079 -2.61542
rclavicle 2.34566e-014 -6.20208e-014
rhumerus -61.0832 20.8972 -83.6617
rradius 32.3933
rwrist -15.8464
rhand -25.5594 -20.1704
rfingers 7.12502
rthumb 0.971293 -50.1479
lclavicle 2.34566e-014 -6.20208e-014
lhumerus -61.1802 5.01706 78.2616
lradius 34.0218
lwrist -6.49149
lhand -27.1407 26.936
lfingers 7.12502
lthumb -0.55602 56.9151
rfemur -12.0262 12.1269 32.0062
rtibia 7.02302
rfoot -9.73258 -17.0265
rtoes -6.83283
lfemur -4.69453 -2.73415 -22.6577
ltibia 52.7109
lfoot -10.0732 11.1649
ltoes -36.3372
630
root 28.9172 15.6105 2.45685 -176.527 0.566528 -176.235
lowerback 15.4894 -0.825581 -2.79937
upperback -12.5245 0.750483 5.94295
thorax -23.9174 2.16631 8.22115
lowerneck -8.07269 1.38146 6.89388
upperneck 42.071 14.9263 -11.262
head 18.9314 8.93987 -2.89464
rclavicle -7.55382e-015 1.43125e-014
rhumerus -60.8969 21.8127 -84.037
rradius 33.712
rwrist -16.1218
rhand -25.9697 -20.1127
rfingers 7.12502
rthumb 0.575008 -50.0917
lclavicle -7.55382e-015 1.43125e-014
lhumerus -61.3913 5.71643 77.3621
lradius 33.125
lwrist -8.19388
lhand -26.817 26.4632
lfingers 7.12502
lthumb -0.243293 56.4428
rfemur -10.5831 11.3959 32.6487
rtibia 6.12086
rfoot -10.0113 -16.61
rtoes -7.7143
lfemur -7.22783 -1.90521 -22.2109
ltibia 56.169
lfoot -12.7822 12.4448
ltoes -40.6776
631
root 28.9758 15.6385 2.26634 -176.385 0.215833 -176.027
lowerback 15.4826 -0.830549 -2.65567
upperback -12.5484 0.816736 5.99011
thorax -23.9609 2.18731 8.16752
lowerneck -8.09762 1.40852 6.67732
upperneck 42.0932 15.0358 -11.1263
head 18.9314 8.97572 -2.76135
rclavicle 3.57812e-015 6.36111e-015
rhumerus -60.4866 22.4428 -84.1531
rradius 34.9397
rwrist -16.2516
rhand -26.2682 -20.2118
rfingers 7.12502
rthumb 0.286751 -50.1913
lclavicle 3.57812e-015 6.36111e-015
lhumerus -61.6325 6.35887 76.4918
lradius 32.5704
lwrist -8.8967
lhand -26.8348 26.0748
lfingers 7.12502
lthumb -0.260543 56.0544
rfemur -9.59712 11.1676 33.2099
rtibia 5.50188
rfoot -10.576 -16.5763
rtoes -8.07851
lfemur -10.2166 -0.869167 -21.7752
ltibia 59.1578
lfoot -16.6794 13.1072
ltoes -40.6309
632
root 29.0281 15.6645 2.08427 -176.214 -0.0651738 -175.736
lowerback 15.5453 -0.876339 -1.7055
upperback -12.5736 0.988041 5.82588
thorax -24.0381 2.07179 7.33885
lowerneck -8.30461 1.55064 5.96612
upperneck 42.1935 15.23 -10.5403
head 18.927 8.9849 -2.30227
rclavicle -2.78299e-015 4.05521e-014
rhumerus -59.7859 22.7946 -84.261
rradius 35.9368
rwrist -16.3363
rhand -26.6967 -20.1693
rfingers 7.12502
rthumb -0.127141 -50.149
lclavicle -2.78299e-015 4.05521e-014
lhumerus -61.8796 6.73115 75.62
lradius 32.6654
lwrist -7.86327
lhand -26.2358 26.4197
lfingers 7.12502
lthumb 0.317982 56.3992
rfemur -8.73244 11.3459 33.8327
rtibia 4.9728
rfoot -10.9779 -16.8024
rtoes -8.32502
lfemur -13.3361 -0.031125 -21.398
ltibia 61.4041
lfoot -19.7544 13.7923
ltoes -38.9563
